HIERARCHY
ROOT Hips
{
  OFFSET -4.35178 90.3298 111.633
  CHANNELS 6 Xposition Yposition Zposition Zrotation Xrotation Yrotation
  JOINT LeftUpLeg
  {
    OFFSET 0.103456 1.85784 10.5485
    CHANNELS 6 Xposition Yposition Zposition Zrotation Xrotation Yrotation
    JOINT LeftLeg
    {
      OFFSET 43.5 -4.2e-05 0
      CHANNELS 6 Xposition Yposition Zposition Zrotation Xrotation Yrotation
      JOINT LeftFoot
      {
        OFFSET 42.3722 1.9e-05 0
        CHANNELS 6 Xposition Yposition Zposition Zrotation Xrotation Yrotation
        JOINT LeftToe
        {
          OFFSET 17.3 0 0
          CHANNELS 6 Xposition Yposition Zposition Zrotation Xrotation Yrotation
          End Site
          {
            OFFSET 0 0 0
          }
        }
      }
    }
  }
  JOINT RightUpLeg
  {
    OFFSET 0.103456 1.85782 -10.5485
    CHANNELS 6 Xposition Yposition Zposition Zrotation Xrotation Yrotation
    JOINT RightLeg
    {
      OFFSET 43.5 -2.7e-05 0
      CHANNELS 6 Xposition Yposition Zposition Zrotation Xrotation Yrotation
      JOINT RightFoot
      {
        OFFSET 42.3723 0 0
        CHANNELS 6 Xposition Yposition Zposition Zrotation Xrotation Yrotation
        JOINT RightToe
        {
          OFFSET 17.3 0 1.7e-05
          CHANNELS 6 Xposition Yposition Zposition Zrotation Xrotation Yrotation
          End Site
          {
            OFFSET 0 0 0
          }
        }
      }
    }
  }
  JOINT Spine
  {
    OFFSET 6.90197 -2.60373 0
    CHANNELS 6 Xposition Yposition Zposition Zrotation Xrotation Yrotation
    JOINT Spine1
    {
      OFFSET 12.5881 0 0
      CHANNELS 6 Xposition Yposition Zposition Zrotation Xrotation Yrotation
      JOINT Spine2
      {
        OFFSET 12.3432 -1.8e-05 0
        CHANNELS 6 Xposition Yposition Zposition Zrotation Xrotation Yrotation
        JOINT Neck
        {
          OFFSET 25.8329 2.3e-05 0
          CHANNELS 6 Xposition Yposition Zposition Zrotation Xrotation Yrotation
          JOINT Head
          {
            OFFSET 11.7666 0 0
            CHANNELS 6 Xposition Yposition Zposition Zrotation Xrotation Yrotation
            End Site
            {
              OFFSET 0 0 0
            }
          }
        }
        JOINT LeftShoulder
        {
          OFFSET 19.7459 -1.48035 6.0001
          CHANNELS 6 Xposition Yposition Zposition Zrotation Xrotation Yrotation
          JOINT LeftArm
          {
            OFFSET 11.2841 1.8e-05 -2e-05
            CHANNELS 6 Xposition Yposition Zposition Zrotation Xrotation Yrotation
            JOINT LeftForeArm
            {
              OFFSET 33 -1.3e-05 1.9e-05
              CHANNELS 6 Xposition Yposition Zposition Zrotation Xrotation Yrotation
              JOINT LeftHand
              {
                OFFSET 25.2 3.2e-05 1.1e-05
                CHANNELS 6 Xposition Yposition Zposition Zrotation Xrotation Yrotation
                End Site
                {
                  OFFSET 0 0 0
                }
              }
            }
          }
        }
        JOINT RightShoulder
        {
          OFFSET 19.7461 -1.48036 -6.00008
          CHANNELS 6 Xposition Yposition Zposition Zrotation Xrotation Yrotation
          JOINT RightArm
          {
            OFFSET 11.2841 0 0
            CHANNELS 6 Xposition Yposition Zposition Zrotation Xrotation Yrotation
            JOINT RightForeArm
            {
              OFFSET 33.0001 1.6e-05 0
              CHANNELS 6 Xposition Yposition Zposition Zrotation Xrotation Yrotation
              JOINT RightHand
              {
                OFFSET 25.1998 0.000123 0.000432
                CHANNELS 6 Xposition Yposition Zposition Zrotation Xrotation Yrotation
                End Site
                {
                  OFFSET 0 0 0
                }
              }
            }
          }
        }
      }
    }
  }
}
MOTION
Frames:	7
Frame Time:	0.0333333
84.1351 89.4048 -124.307 87.0201 -1.66479 2.80789 0.103456 1.85784 10.5485 9.05297 -7.33636 179.484 43.5 -4.2e-05 1e-05 -0.889741 -12.1067 -3.24804 42.3722 1.9e-05 -1.42109e-14 75.2429 -16.1497 6.35212 17.3 0 3e-06 21.4546 -1e-06 0.003093 0.103456 1.85782 -10.5485 4.28219 10.4701 176.596 43.5 -2.7e-05 4e-06 -10.7111 10.7806 1.21801 42.3723 -2.84217e-14 1e-05 82.7341 17.0552 -15.6356 17.3 -6e-06 1.7e-05 21.4546 -1.9e-05 -0.003116 6.90197 -2.60373 -3e-06 7.69161 -0.192917 0.0660331 12.5881 1e-05 8e-06 5.37287 -0.306052 0.184789 12.3432 -1.8e-05 -5e-06 5.05804 -0.215397 0.215278 25.8329 2.3e-05 7e-06 8.28271 -6.8769 -1.72987 11.7666 -8e-06 -6e-06 -24.9078 -14.8895 9.686 19.7459 -1.48035 6.0001 179.816 6.98589 -96.7249 11.2841 1.8e-05 -2e-05 29.9697 -29.7839 39.7959 33 -1.3e-05 1.9e-05 -17.7037 7.40233 -24.7823 25.2 3.2e-05 1.1e-05 -4.21365 30.282 -0.542397 19.7461 -1.48036 -6.00008 -170.797 -8.81154 85.4118 11.2841 0 -1e-06 10.9122 12.0068 -15.6747 33.0001 1.6e-05 -1e-06 -16.9634 -3.24791 23.7748 25.1998 0.000123 0.000432 9.33837 -17.9499 8.23606 
84.138 89.4084 -124.26 87.0482 -1.9411 2.77077 0.103456 1.85784 10.5485 9.11355 -7.21359 179.466 43.5 -4.2e-05 1e-05 -0.767457 -12.2408 -3.28118 42.3722 1.9e-05 0 75.3086 -16.3151 6.46553 17.3 -7.10543e-15 3e-06 21.4546 -1e-06 0.003093 0.103456 1.85782 -10.5485 4.09614 10.5544 176.624 43.5 -2.7e-05 4e-06 -10.8916 10.6456 1.13068 42.3723 -1.42109e-14 1e-05 82.5101 17.0542 -15.5141 17.3 -6e-06 1.7e-05 21.4546 -1.9e-05 -0.003116 6.90197 -2.60373 -3e-06 7.71926 -0.225609 0.122818 12.5881 1e-05 8e-06 5.42879 -0.362543 0.303107 12.3432 -1.8e-05 -5e-06 5.11434 -0.263621 0.336939 25.8329 2.3e-05 7e-06 8.09377 -7.2914 -1.35603 11.7666 -8e-06 -6e-06 -25.0857 -15.3671 9.34823 19.7459 -1.48035 6.0001 179.41 6.37645 -96.5063 11.2841 1.8e-05 -2e-05 29.8348 -29.832 39.9697 33 -1.3e-05 1.9e-05 -17.5995 7.58122 -24.8506 25.2 3.2e-05 1.1e-05 -4.35692 30.3274 -0.48514 19.7461 -1.48036 -6.00008 -170.428 -9.1736 85.0342 11.2841 -2.84217e-14 -1e-06 10.9539 10.9622 -14.7136 33.0001 1.6e-05 -1e-06 -17.9329 -2.62976 24.0778 25.1998 0.000123 0.000432 9.70525 -17.6235 8.14182 
84.1405 89.4093 -124.25 87.0556 -1.9859 2.76474 0.103456 1.85784 10.5485 9.07432 -7.18524 179.458 43.5 -4.2e-05 1e-05 -0.812909 -12.2642 -3.2765 42.3722 1.9e-05 0 75.3722 -16.3582 6.50783 17.3 0 3e-06 21.4546 -1e-06 0.003093 0.103456 1.85782 -10.5485 4.07695 10.5684 176.622 43.5 -2.7e-05 4e-06 -10.8778 10.628 1.12468 42.3723 1.42109e-14 1e-05 82.4645 17.0492 -15.4883 17.3 -6e-06 1.7e-05 21.4546 -1.9e-05 -0.003116 6.90197 -2.60373 -3e-06 7.71474 -0.245607 0.127888 12.5881 1e-05 8e-06 5.42027 -0.401795 0.316153 12.3432 -1.8e-05 -5e-06 5.10637 -0.30211 0.352378 25.8329 2.3e-05 7e-06 8.10735 -7.43572 -1.22963 11.7666 -8e-06 -6e-06 -24.8927 -15.6311 9.37842 19.7459 -1.48035 6.0001 179.343 6.31199 -96.4821 11.2841 1.8e-05 -2e-05 29.858 -29.8493 39.9255 33 -1.3e-05 1.9e-05 -17.5165 7.61611 -24.8463 25.2 3.2e-05 1.1e-05 -4.41211 30.3498 -0.471147 19.7461 -1.48036 -6.00008 -170.378 -9.2014 85.0825 11.2841 -2.84217e-14 -1e-06 10.8854 10.9393 -14.6882 33.0001 1.6e-05 -1e-06 -18.0036 -2.66386 24.1319 25.1998 0.000123 0.000432 9.70472 -17.6528 8.19877 
84.1509 89.4106 -124.24 87.0529 -2.04607 2.7566 0.103456 1.85784 10.5485 9.05111 -7.1669 179.455 43.5 -4.2e-05 1e-05 -0.863845 -12.2786 -3.27465 42.3722 1.9e-05 -1.42109e-14 75.4015 -16.3598 6.53799 17.3 -7.10543e-15 3e-06 21.4546 -1e-06 0.003093 0.103456 1.85782 -10.5485 4.05498 10.5631 176.619 43.5 -2.7e-05 4e-06 -10.8845 10.6037 1.12183 42.3723 -1.42109e-14 1e-05 82.4353 17.0287 -15.4606 17.3 -6e-06 1.7e-05 21.4546 -1.9e-05 -0.003116 6.90197 -2.60373 -3e-06 7.66234 -0.268764 0.128694 12.5881 1e-05 8e-06 5.31607 -0.449132 0.320851 12.3432 -1.8e-05 -5e-06 5.00291 -0.350653 0.359849 25.8329 2.3e-05 7e-06 8.31372 -7.47981 -1.21635 11.7666 -8e-06 -6e-06 -24.5543 -15.7445 9.46946 19.7459 -1.48035 6.0001 179.447 6.33327 -96.4881 11.2841 1.8e-05 -2e-05 30.0107 -29.7276 39.8261 33 -1.3e-05 1.9e-05 -17.5561 7.56398 -24.7621 25.2 3.2e-05 1.1e-05 -4.34747 30.3511 -0.485813 19.7461 -1.48036 -6.00008 -170.822 -9.12521 85.4145 11.2841 -2.84217e-14 -1e-06 10.5798 11.7082 -14.871 33.0001 1.6e-05 -1e-06 -17.0369 -3.08027 23.8473 25.1998 0.000123 0.000432 8.96167 -17.87 8.166 
84.1612 89.411 -124.23 87.046 -2.10923 2.748 0.103456 1.85784 10.5485 9.0806 -7.15785 179.442 43.5 -4.2e-05 1e-05 -0.819959 -12.2974 -3.27403 42.3722 1.9e-05 0 75.3899 -16.3741 6.56224 17.3 0 3e-06 21.4546 -1e-06 0.003093 0.103456 1.85782 -10.5485 4.04678 10.5759 176.616 43.5 -2.7e-05 4e-06 -10.8743 10.5949 1.11984 42.3723 0 1e-05 82.4052 17.0052 -15.4433 17.3 -6e-06 1.7e-05 21.4546 -1.9e-05 -0.003116 6.90197 -2.60373 -3e-06 7.64847 -0.274231 0.135956 12.5881 1e-05 8e-06 5.28848 -0.45933 0.33603 12.3432 -1.8e-05 -5e-06 4.9754 -0.360302 0.375603 25.8329 2.3e-05 7e-06 8.35966 -7.55655 -1.13558 11.7666 -8e-06 -6e-06 -24.2966 -15.8922 9.50741 19.7459 -1.48035 6.0001 179.391 6.26373 -96.4814 11.2841 1.8e-05 -2e-05 30.0371 -29.75 39.841 33 -1.3e-05 1.9e-05 -17.5217 7.60935 -24.7265 25.2 3.2e-05 1.1e-05 -4.39996 30.3534 -0.416898 19.7461 -1.48036 -6.00008 -170.877 -9.12356 85.477 11.2841 2.84217e-14 -1e-06 10.5738 11.8248 -14.8511 33.0001 1.6e-05 -1e-06 -17.0969 -3.04476 23.8943 25.1998 0.000123 0.000432 8.7004 -17.8632 8.2676 
84.1722 89.4125 -124.217 87.0373 -2.15911 2.74114 0.103456 1.85784 10.5485 9.11607 -7.14534 179.428 43.5 -4.2e-05 1e-05 -0.766252 -12.3224 -3.27474 42.3722 1.9e-05 0 75.3704 -16.3352 6.60614 17.3 0 3e-06 21.4546 -1e-06 0.003093 0.103456 1.85782 -10.5485 4.05214 10.581 176.613 43.5 -2.7e-05 4e-06 -10.8713 10.5759 1.11852 42.3723 0 1e-05 82.4054 16.9939 -15.435 17.3 -6e-06 1.7e-05 21.4546 -1.9e-05 -0.003116 6.90197 -2.60373 -3e-06 7.64399 -0.284832 0.146946 12.5881 1e-05 8e-06 5.27979 -0.479027 0.359485 12.3432 -1.8e-05 -5e-06 4.96692 -0.378593 0.400198 25.8329 2.3e-05 7e-06 8.37271 -7.60532 -1.08622 11.7666 -8e-06 -6e-06 -24.0614 -15.9949 9.54316 19.7459 -1.48035 6.0001 179.363 6.20632 -96.4495 11.2841 1.8e-05 -2e-05 30.0766 -29.7289 39.8535 33 -1.3e-05 1.9e-05 -17.562 7.62123 -24.6941 25.2 3.2e-05 1.1e-05 -4.40257 30.3505 -0.414034 19.7461 -1.48036 -6.00008 -170.911 -9.08848 85.4448 11.2841 0 -1e-06 10.4501 11.7028 -14.6756 33.0001 1.6e-05 -1e-06 -17.0664 -3.31541 23.8961 25.1998 0.000123 0.000432 8.73326 -17.9845 8.1529 
84.1823 89.4131 -124.201 87.025 -2.20429 2.73487 0.103456 1.85784 10.5485 9.09945 -7.13075 179.416 43.5 -4.2e-05 1e-05 -0.798317 -12.3207 -3.27641 42.3722 1.9e-05 0 75.3816 -16.3311 6.62724 17.3 0 3e-06 21.4546 -1e-06 0.003093 0.103456 1.85782 -10.5485 4.05398 10.5811 176.612 43.5 -2.7e-05 4e-06 -10.8692 10.571 1.11784 42.3723 0 1e-05 82.3787 16.9865 -15.427 17.3 -6e-06 1.7e-05 21.4546 -1.9e-05 -0.003116 6.90197 -2.60373 -3e-06 7.6401 -0.292038 0.155364 12.5881 1e-05 8e-06 5.27217 -0.492265 0.377313 12.3432 -1.8e-05 -5e-06 4.95942 -0.390899 0.418817 25.8329 2.3e-05 7e-06 8.38125 -7.64202 -1.04237 11.7666 -8e-06 -6e-06 -23.8483 -16.0677 9.56941 19.7459 -1.48035 6.0001 179.331 6.16613 -96.4223 11.2841 1.8e-05 -2e-05 30.0431 -29.7256 39.8193 33 -1.3e-05 1.9e-05 -17.4913 7.64873 -24.6809 25.2 3.2e-05 1.1e-05 -4.41696 30.3731 -0.413669 19.7461 -1.48036 -6.00008 -170.928 -9.06826 85.4423 11.2841 -2.84217e-14 -1e-06 10.3762 11.6373 -14.5932 33.0001 1.6e-05 -1e-06 -17.0567 -3.39731 23.8803 25.1998 0.000123 0.000432 8.66246 -18.0227 8.13127 
